# xmcd
#
# Track frame offsets:
#	150
#	23048
#	45738
#	65285
#	84983
#	108873
#	128583
#	148293
#	167425
#	184785
#	209660
#
# Disc length: 3107 seconds
#
# Revision: 3
# Processed by: cddbd v1.5.1PL2 Copyright (c) Steve Scherf et al.
# Submitted via: audiograbber 1.82.02
#
DISCID=910c210b
DTITLE=Paul Young - Between Two Fires
DYEAR=1986
DGENRE=Pop
TTITLE0=Some People
TTITLE1=Wonderland
TTITLE2=War Games
TTITLE3=In The Long Run
TTITLE4=Wasting My Time
TTITLE5=Prisoner Of Conscience
TTITLE6=Why Does A Man Have To Be Strong?
TTITLE7=A Certain Passion
TTITLE8=Between Two Fires
TTITLE9=Wedding Day
TTITLE10=Steps To Go
EXTD=
EXTT0=
EXTT1=
EXTT2=
EXTT3=
EXTT4=
EXTT5=
EXTT6=
EXTT7=
EXTT8=
EXTT9=
EXTT10=
PLAYORDER=
